<svg id="Layer_1" data-name="Layer 1" xmlns="http://www.w3.org/2000/svg" xmlns:xlink="http://www.w3.org/1999/xlink" viewBox="0 0 50 8.2026"><defs><style>.cls-1{fill:url(#linear-gradient);}.cls-2{fill:url(#linear-gradient-2);}.cls-3{fill:url(#linear-gradient-3);}</style><linearGradient id="linear-gradient" x1="12.8715" y1="9.538" x2="12.1586" y2="3.7317" gradientUnits="userSpaceOnUse"><stop offset="0" stop-color="#5aafd1"/><stop offset="0.9911" stop-color="#045572"/></linearGradient><linearGradient id="linear-gradient-2" x1="12.4321" y1="9.5845" x2="10.8073" y2="3.918" gradientUnits="userSpaceOnUse"><stop offset="0" stop-color="#004d68"/><stop offset="1" stop-color="#63b8db"/></linearGradient><linearGradient id="linear-gradient-3" x1="25.3849" y1="12.2262" x2="23.9908" y2="0.8723" gradientUnits="userSpaceOnUse"><stop offset="0" stop-color="#5aafd1"/><stop offset="0.9911" stop-color="#003e4f"/></linearGradient></defs><title>logo</title><path class="cls-1" d="M12.522,3.8006h-.9245a2.67,2.67,0,0,1,.4622.0408,2.8507,2.8507,0,0,1,2.3146,2.828v.0112a1.8875,1.8875,0,0,1-1.8531,1.9211,1.8042,1.8042,0,0,1-.4623-.06,1.9107,1.9107,0,0,1-1.3908-1.8612v0a1.467,1.467,0,0,1,1.3908-1.5323A1.467,1.467,0,0,1,13.45,6.6806,1.9114,1.9114,0,0,0,12.0589,4.82a1.8032,1.8032,0,0,0-.4622-.06,1.8875,1.8875,0,0,0-1.8531,1.921v.0113A2.8507,2.8507,0,0,0,12.0581,9.52a2.6708,2.6708,0,0,0,.4623.0408A2.83,2.83,0,0,0,15.298,6.6814,2.83,2.83,0,0,0,12.522,3.8006Z" transform="translate(0.161 -1.358)"/><path class="cls-2" d="M9.7451,6.691V6.68a1.8877,1.8877,0,0,1,1.8531-1.9211,1.8046,1.8046,0,0,1,.4623.06A1.9108,1.9108,0,0,1,13.4513,6.68a1.467,1.467,0,0,1-1.3908,1.5324A1.4671,1.4671,0,0,1,10.67,6.68a1.9113,1.9113,0,0,0,1.3909,1.8611,1.8,1.8,0,0,0,.4623.06A1.8877,1.8877,0,0,0,14.3759,6.68V6.6686a2.8507,2.8507,0,0,0-2.3146-2.828A2.6717,2.6717,0,0,0,11.599,3.8,2.8294,2.8294,0,0,0,8.8221,6.679,2.83,2.83,0,0,0,11.599,9.5583h.9246a2.67,2.67,0,0,1-.4623-.0408A2.8476,2.8476,0,0,1,9.7451,6.691Z" transform="translate(0.161 -1.358)"/><path class="cls-3" d="M8.0512,6.1056V9.4519H6.5156V6.3071a.872.872,0,0,0-.8854-.97.879.879,0,0,0-.9173.9389v3.176H3.1773V6.3071a.872.872,0,0,0-.8854-.97.8851.8851,0,0,0-.9173.97v3.144H-.161V4.0565H1.2578v.4A2.0891,2.0891,0,0,1,2.6958,3.94a1.835,1.835,0,0,1,1.5676.7238A2.3564,2.3564,0,0,1,6.0125,3.94,1.9527,1.9527,0,0,1,8.0512,6.1056ZM21.57,1.358V9.4511H20.1511V8.8864a2.1429,2.1429,0,0,1-1.64.6727,2.619,2.619,0,0,1-2.6017-2.8033,2.619,2.619,0,0,1,2.6017-2.8033,2.1566,2.1566,0,0,1,1.5236.5535V1.358ZM18.7771,5.349a1.3105,1.3105,0,0,0-1.3108,1.3956,1.3019,1.3019,0,0,0,1.3108,1.406A1.2538,1.2538,0,0,0,20.056,6.755,1.2733,1.2733,0,0,0,18.7771,5.349Zm5.2882-1.41H22.5889V9.4511h1.4764Zm-.743-2.5378a.8.8,0,1,0,.8326.8038A.8012.8012,0,0,0,23.3223,1.4012ZM28.8888,3.939,27.6347,6.5111,26.3807,3.939H24.7643l2.83,5.53,2.9217-5.53ZM49.839,6.28a2.1442,2.1442,0,0,1-.0454.5383l-.0074.0264H45.3444A2.1311,2.1311,0,0,0,47.5,8.9a2.2,2.2,0,0,0,1.7468-.8246l.0257-.03.4032.4159-.0217.0248A2.8157,2.8157,0,0,1,47.488,9.49c-.0188.0008-.0378.0008-.0562.0008A2.7748,2.7748,0,0,1,44.6966,6.687a2.8,2.8,0,0,1,.8261-2.0258,2.5886,2.5886,0,0,1,1.9-.787A2.332,2.332,0,0,1,49.839,6.28Zm-.6444-.0024a1.7533,1.7533,0,0,0-.4727-1.2884A1.81,1.81,0,0,0,47.4,4.4532a1.8875,1.8875,0,0,0-1.3533.53,2.1515,2.1515,0,0,0-.6774,1.2932h3.8255ZM41.0167,3.94l.0007,5.5113h-.599l-.0207-.9526a2.4564,2.4564,0,0,1-1.9889.9742,2.5278,2.5278,0,0,1-1.8206-.747,2.8514,2.8514,0,0,1-.7733-2.0515,2.5439,2.5439,0,0,1,2.5939-2.772,2.4336,2.4336,0,0,1,1.9826.9237V3.94Zm-.6,2.6968a1.989,1.989,0,1,0-3.9652,0A2.0743,2.0743,0,0,0,38.4469,8.888,2.0262,2.0262,0,0,0,40.4168,6.6366ZM33.2454,4.4644a2.0773,2.0773,0,0,1,1.7233.879l.0224.03.4527-.3648L35.4231,4.98a2.6537,2.6537,0,0,0-2.1777-1.1061,2.7229,2.7229,0,0,0-1.9773.8094,2.7534,2.7534,0,0,0-.8149,1.9922,2.7732,2.7732,0,0,0,.8221,2.0075,2.7157,2.7157,0,0,0,1.9035.8078c.0184,0,.0368,0,.0552-.0008a2.6942,2.6942,0,0,0,2.1891-1.1061l.0207-.028-.4527-.3647-.0224.0287a2.0923,2.0923,0,0,1-1.7347.879,2.1576,2.1576,0,0,1-2.1354-2.2234A2.1568,2.1568,0,0,1,33.2454,4.4644ZM44.7965,3.947H44.76a.8861.8861,0,0,1-.0935-.01,1.8271,1.8271,0,0,0-.2542-.0232,2.0788,2.0788,0,0,0-1.7635.8725V3.9406h-.6119V9.4519h.6343V6.2208A1.72,1.72,0,0,1,44.48,4.5132h.3174V3.947Z" transform="translate(0.161 -1.358)"/></svg>